<?xml version="1.0" encoding="UTF-8" standalone="no"?><!DOCTYPE svg PUBLIC "-//W3C//DTD SVG 1.1//EN" "http://www.w3.org/Graphics/SVG/1.1/DTD/svg11.dtd"><svg width="100%" height="100%" viewBox="0 0 43405 43405" version="1.1" xmlns="http://www.w3.org/2000/svg" xmlns:xlink="http://www.w3.org/1999/xlink" xml:space="preserve" xmlns:serif="http://www.serif.com/" style="fill-rule:evenodd;clip-rule:evenodd;stroke-linejoin:round;stroke-miterlimit:2;"><path d="M19892.9,41956.2l0,-5425.33l-5425.33,-0l-0,-3616.91l5425.33,0l0,-9403.92l-9403.92,-0l0,5425.33l-3616.91,0l-0,-5425.33l-5425.33,-0l-0,-3616.91l5425.33,0l-0,-5425.33l3616.91,0l0,5425.33l9403.92,0l0,-9403.92l-5425.33,-0l-0,-3616.91l5425.33,0l0,-5425.33l3616.91,-0l0,5425.33l5425.33,0l-0,3616.91l-5425.33,-0l0,9403.92l9403.92,0l0,-5425.33l3616.91,0l0,5425.33l5425.33,0l-0,3616.91l-5425.33,-0l0,5425.33l-3616.91,0l0,-5425.33l-9403.92,-0l0,9403.92l5425.33,0l-0,3616.91l-5425.33,-0l0,5425.33l-3616.91,0Z" style="fill:#52796f;fill-rule:nonzero;"/></svg>