<?xml version="1.0" encoding="UTF-8" standalone="no"?><!DOCTYPE svg PUBLIC "-//W3C//DTD SVG 1.1//EN" "http://www.w3.org/Graphics/SVG/1.1/DTD/svg11.dtd"><svg width="100%" height="100%" viewBox="0 0 720 720" version="1.1" xmlns="http://www.w3.org/2000/svg" xmlns:xlink="http://www.w3.org/1999/xlink" xml:space="preserve" xmlns:serif="http://www.serif.com/" style="fill-rule:evenodd;clip-rule:evenodd;stroke-linejoin:round;stroke-miterlimit:2;"><g><g transform="matrix(0.24,0,0,0.24,-156.12,353.34)"><text x="836.26px" y="927.811px" style="font-family:'InterDisplay-Light', 'Inter Display';font-weight:300;font-size:458.333px;fill:#52796f;">C<tspan x="1165.02px 1505.63px 1754.27px 2002.91px 2272.58px 2601.34px 2884.89px 3154.56px " y="927.811px 927.811px 927.811px 927.811px 927.811px 927.811px 927.811px 927.811px ">OLLECTED</tspan></text><text x="1180.68px" y="1386.14px" style="font-family:'InterDisplay-Light', 'Inter Display';font-weight:300;font-size:458.333px;fill:#52796f;">P<tspan x="1458.64px 1747.33px 1995.75px 2290.26px 2559.93px 2848.63px " y="1386.14px 1386.14px 1386.14px 1386.14px 1386.14px 1386.14px ">RAYERS</tspan></text></g><path d="M583.914,28.757c0,-12.358 -10.033,-22.391 -22.391,-22.391l-403.046,-0c-12.358,-0 -22.391,10.033 -22.391,22.391c-0,0 -0.076,134.322 -0.076,201.496c-0,67.174 0.076,201.55 0.076,201.55c-0,12.358 10.033,22.391 22.391,22.391l403.046,0c12.358,0 22.391,-10.033 22.391,-22.391l0,-403.046Z" style="fill:#52796f;"/><g><path d="M388.097,56.226c-0,-8.431 -7.494,-5.621 -28.101,-5.621c-23.418,0 -28.101,-2.81 -28.101,5.621c14.27,114.691 10.337,235.837 0,348.446c0,8.43 5.473,5.058 28.327,5.058c22.856,0 27.875,3.372 27.875,-5.058c-11.532,-113.239 -14.105,-234.923 -0,-348.446Z" style="fill:#fff;"/><path d="M217.987,161.883c-6.879,0 -4.586,7.493 -4.586,28.101c0,23.418 -2.293,28.101 4.586,28.101c93.578,-14.271 192.422,-10.338 284.301,-0c6.878,-0 4.126,-5.473 4.126,-28.328c-0,-22.855 2.752,-27.874 -4.126,-27.874c-92.394,11.532 -191.676,14.105 -284.301,0Z" style="fill:#fff;"/></g></g></svg>