<?xml version="1.0" encoding="UTF-8" standalone="no"?><!DOCTYPE svg PUBLIC "-//W3C//DTD SVG 1.1//EN" "http://www.w3.org/Graphics/SVG/1.1/DTD/svg11.dtd"><svg width="100%" height="100%" viewBox="0 0 500 500" version="1.1" xmlns="http://www.w3.org/2000/svg" xmlns:xlink="http://www.w3.org/1999/xlink" xml:space="preserve" xmlns:serif="http://www.serif.com/" style="fill-rule:evenodd;clip-rule:evenodd;stroke-linejoin:round;stroke-miterlimit:2;"><path d="M498,26.8c-0,-13.687 -11.113,-24.8 -24.8,-24.8l-446.4,-0c-13.687,-0 -24.8,11.113 -24.8,24.8c-0,0 -0.084,148.77 -0.084,223.17c-0,74.4 0.084,223.23 0.084,223.23c-0,13.687 11.113,24.8 24.8,24.8l446.4,-0c13.687,-0 24.8,-11.113 24.8,-24.8l-0,-446.4Z" style="fill:#52796f;"/><g><path d="M281.119,57.223c-0,-9.337 -8.3,-6.225 -31.123,-6.225c-25.937,-0 -31.124,-3.112 -31.124,6.225c15.805,127.029 11.449,261.206 0,385.928c0,9.337 6.061,5.602 31.374,5.602c25.314,0 30.873,3.735 30.873,-5.602c-12.772,-125.42 -15.622,-260.193 -0,-385.928Z" style="fill:#fff;"/><path d="M92.711,174.246c-7.619,0 -5.079,8.299 -5.079,31.123c-0,25.937 -2.54,31.124 5.079,31.124c103.644,-15.806 213.12,-11.45 314.882,-0c7.618,-0 4.57,-6.061 4.57,-31.375c0,-25.313 3.048,-30.872 -4.57,-30.872c-102.332,12.772 -212.294,15.622 -314.882,0Z" style="fill:#fff;"/></g></svg>