<?xml version="1.0" encoding="UTF-8" standalone="no"?><!DOCTYPE svg PUBLIC "-//W3C//DTD SVG 1.1//EN" "http://www.w3.org/Graphics/SVG/1.1/DTD/svg11.dtd"><svg width="100%" height="100%" viewBox="0 0 1000 1000" version="1.1" xmlns="http://www.w3.org/2000/svg" xmlns:xlink="http://www.w3.org/1999/xlink" xml:space="preserve" xmlns:serif="http://www.serif.com/" style="fill-rule:evenodd;clip-rule:evenodd;stroke-linejoin:round;stroke-miterlimit:2;"><circle cx="500" cy="500" r="500" style="fill:#52796f;"/><path d="M353.73,206.27l292.54,0c0,0 -104.383,200.613 -79.807,225.19c24.577,24.576 227.267,-77.73 227.267,-77.73l-0,292.54c-0,0 -202.69,-104.383 -227.267,-79.807c-24.576,24.577 79.807,227.267 79.807,227.267l-292.54,-0c-0,-0 104.383,-202.69 79.807,-227.267c-24.577,-24.576 -227.267,79.807 -227.267,79.807l0,-292.54c0,-0 202.69,104.383 227.267,79.807c24.576,-24.577 -79.807,-227.267 -79.807,-227.267Z" style="fill:#fff;"/></svg>