<?xml version="1.0" encoding="UTF-8" standalone="no"?><!DOCTYPE svg PUBLIC "-//W3C//DTD SVG 1.1//EN" "http://www.w3.org/Graphics/SVG/1.1/DTD/svg11.dtd"><svg width="100%" height="100%" viewBox="0 0 1000 1000" version="1.1" xmlns="http://www.w3.org/2000/svg" xmlns:xlink="http://www.w3.org/1999/xlink" xml:space="preserve" xmlns:serif="http://www.serif.com/" style="fill-rule:evenodd;clip-rule:evenodd;stroke-linejoin:round;stroke-miterlimit:2;"><circle cx="500" cy="500" r="500" style="fill:#52796f;"/><g><path d="M590,170c0,-0 -60,6.6 -90,6.6c-30,-0 -90,-6.6 -90,-6.6c0,-0 10.654,106.668 12,162.6c2,83.1 2,253.1 0,336c-1.34,55.546 -12,161.4 -12,161.4c0,0 60,-5.4 90,-5.4c30,-0 90,5.4 90,5.4c0,0 -10.66,-105.854 -12,-161.4c-2,-82.9 -2,-252.9 0,-336c1.346,-55.932 12,-162.6 12,-162.6Z" style="fill:#fff;"/><path d="M170,410c0,0 6.6,60 6.6,90c0,30 -6.6,90 -6.6,90c0,0 106.668,-10.654 162.6,-12c83.1,-2 253.1,-2 336,0c55.546,1.34 161.4,12 161.4,12c0,0 -5.4,-60 -5.4,-90c0,-30 5.4,-90 5.4,-90c0,0 -105.854,10.66 -161.4,12c-82.9,2 -252.9,2 -336,0c-55.932,-1.346 -162.6,-12 -162.6,-12Z" style="fill:#fff;"/></g></svg>