<?xml version="1.0" encoding="UTF-8" standalone="no"?><!DOCTYPE svg PUBLIC "-//W3C//DTD SVG 1.1//EN" "http://www.w3.org/Graphics/SVG/1.1/DTD/svg11.dtd"><svg width="100%" height="100%" viewBox="0 0 1000 1000" version="1.1" xmlns="http://www.w3.org/2000/svg" xmlns:xlink="http://www.w3.org/1999/xlink" xml:space="preserve" xmlns:serif="http://www.serif.com/" style="fill-rule:evenodd;clip-rule:evenodd;stroke-linejoin:round;stroke-miterlimit:2;"><circle cx="500" cy="500" r="500" style="fill:#52796f;"/><path d="M570,133.365c0,-7.376 -5.989,-13.365 -13.365,-13.365l-113.27,0c-7.376,0 -13.365,5.989 -13.365,13.365l0,733.27c0,7.376 5.989,13.365 13.365,13.365l113.27,0c7.376,0 13.365,-5.989 13.365,-13.365l0,-733.27Z" style="fill:#fff;"/><path d="M153.843,430c-7.64,0 -13.843,6.203 -13.843,13.843l0,112.314c0,7.64 6.203,13.843 13.843,13.843l692.314,0c7.64,0 13.843,-6.203 13.843,-13.843l0,-112.314c0,-7.64 -6.203,-13.843 -13.843,-13.843l-692.314,0Z" style="fill:#fff;"/></svg>